HIERARCHY
ROOT HipCenter
{
    OFFSET 0.0 0.0 -0.0
    CHANNELS 6 Xposition Yposition Zposition Zrotation Xrotation Yrotation
    JOINT Spine
    {
        OFFSET 0.0 26.317174911499023 0.0
        CHANNELS 3 Zrotation Xrotation Yrotation
        JOINT ShoulderCenter
        {
            OFFSET 0.0 19.73381996154785 0.0
            CHANNELS 3 Zrotation Xrotation Yrotation
            JOINT LeftShoulder
            {
                OFFSET 13.73247241973877 0.0 0.0
                CHANNELS 3 Zrotation Xrotation Yrotation
                JOINT LeftElbow
                {
                    OFFSET 21.650636672973633 0.0 0.0
                    CHANNELS 3 Zrotation Xrotation Yrotation
                    JOINT LeftWrist
                    {
                        OFFSET 22.609058380126953 0.0 0.0
                        CHANNELS 3 Zrotation Xrotation Yrotation
                        JOINT LeftHand
                        {
                            OFFSET 6.248835563659668 0.0 0.0
                            CHANNELS 3 Zrotation Xrotation Yrotation
                            End Site
                            {
                                OFFSET 2.4995341300964355 0.0 0.0
                            }
                        }
                    }
                }
            }
            JOINT RightShoulder
            {
                OFFSET -13.73247241973877 0.0 0.0
                CHANNELS 3 Zrotation Xrotation Yrotation
                JOINT RightElbow
                {
                    OFFSET -21.650636672973633 0.0 0.0
                    CHANNELS 3 Zrotation Xrotation Yrotation
                    JOINT RightWrist
                    {
                        OFFSET -22.609058380126953 0.0 0.0
                        CHANNELS 3 Zrotation Xrotation Yrotation
                        JOINT RightHand
                        {
                            OFFSET -6.248835563659668 0.0 0.0
                            CHANNELS 3 Zrotation Xrotation Yrotation
                            End Site
                            {
                                OFFSET -2.4995341300964355 0.0 0.0
                            }
                        }
                    }
                }
            }
            End Site
            {
                OFFSET 0.0 7.893527030944824 0.0
            }
        }
    }
    JOINT LeftHip
    {
        OFFSET 5.664432525634766 0.0 0.0
        CHANNELS 3 Zrotation Xrotation Yrotation
        JOINT LeftKnee
        {
            OFFSET 0.0 -32.11784362792969 0.0
            CHANNELS 3 Zrotation Xrotation Yrotation
            JOINT LeftAnkle
            {
                OFFSET 0.0 -34.591773986816406 0.0
                CHANNELS 3 Zrotation Xrotation Yrotation
                JOINT LeftFoot
                {
                    OFFSET 0.0 -7.891945838928223 0.0
                    CHANNELS 3 Zrotation Xrotation Yrotation
                    End Site
                    {
                        OFFSET 0.0 0.0 3.156778335571289
                    }
                }
            }
        }
    }
    JOINT RightHip
    {
        OFFSET -5.664432525634766 0.0 0.0
        CHANNELS 3 Zrotation Xrotation Yrotation
        JOINT RightKnee
        {
            OFFSET 0.0 -32.11784362792969 0.0
            CHANNELS 3 Zrotation Xrotation Yrotation
            JOINT RightAnkle
            {
                OFFSET 0.0 -34.591773986816406 0.0
                CHANNELS 3 Zrotation Xrotation Yrotation
                JOINT RightFoot
                {
                    OFFSET 0.0 -7.891945838928223 0.0
                    CHANNELS 3 Zrotation Xrotation Yrotation
                    End Site
                    {
                        OFFSET 0.0 0.0 3.156778335571289
                    }
                }
            }
        }
    }
}
MOTION
Frames: 4
Frame Time: 0.03333333333333333
23.81346893310547 17.933019638061523 -376.7983093261719 2.3100818879141287 15.874418863854201 -152.87025416348382 -1.1488269522610257 -1.9316521157618591 -0.24161367439823506 -4.3224756153261216e-07 6.102033291637788e-07 -0.9220166225261563 -77.59835041772436 4.753820061761583 3.7888033553119485 -5.7137976143354795e-06 3.632369087006069e-06 9.380980019612977 1.4763207828712365e-05 -83.80880245603585 5.666050383073447 -8.827812596100317e-32 -3.1805546814635168e-15 -3.1805546814635168e-15 86.26866661503173 -3.9558754363274264 -1.3934110494435148 -6.0828963153563e-06 -4.778647560283349e-08 -15.67722427711833 4.461238047958759e-07 -25.06205287746721 -18.011028394154096 -2.9817700138720476e-15 1.5902773407317588e-15 3.975693351829397e-16 11.010459498877122 -7.846606460436145 21.688213674431662 -13.947567008140123 -1.8871719822898332 -0.5681179401542509 -27.605259172790696 30.454275918486296 26.35991529914106 9.93923337957349e-17 1.9878466759146977e-16 -6.858071031905707e-15 -1.0784700184905012 -6.135278096873499 -38.49375090796171 8.6109129866558 -6.511163143929206 1.69795835532109 27.90727236657742 49.820931348674414 -34.959148640718354 1.5902773407317582e-15 0.0 0.0
23.620649337768555 17.908119201660156 -376.7213134765625 2.196894844602464 15.897488037717617 -152.8128554456099 -1.0988717461750321 -1.8573734948522307 -0.2415640644166435 9.892893899275622e-07 2.1877665201070045e-06 0.1372410300468902 -77.52232257462344 7.269077152390405 3.005490705325666 7.806907440476886e-06 -3.4689073562636013e-06 10.1130886091049 179.99999693429018 -60.66129199291014 -170.58138951583027 6.3611093629270335e-15 3.1805546814635168e-15 3.1805546814635168e-15 86.57564829943188 -2.5948166210634946 -2.484254122363317 -5.749645280567318e-07 -6.338276469056352e-06 -14.390912860023205 -6.482082275663875e-06 -6.578010628234835 -6.662300705012643 2.9817700138720468e-15 -4.1380371544220234e-32 -1.5902773407317584e-15 10.787260167840225 -7.696418003568329 21.76246793664696 -13.648623060650118 -1.9427368416812454 -0.5879641775416468 -28.222409739372836 8.802005676138336 8.716231387207856 1.5902773407317584e-15 2.2069531490250793e-32 1.5902773407317584e-15 -1.746988544365056 -6.039066909966449 -38.99219883457792 9.13340698008556 -5.9201442936787805 1.5049556444879921 21.69655537718511 47.59109429103231 -28.131576809206543 3.975693351829396e-15 2.758691436281349e-32 7.951386703658792e-16
23.55229949951172 17.893051147460938 -376.6144104003906 2.0850483416215058 15.779151831546368 -152.80950368051845 -1.144810416063645 -1.8430333767545781 -0.23579535981494468 -3.897382628552082e-07 -1.0068746360756014e-06 -0.7391201677255316 -76.76684016294227 1.3150835628879671 2.8619719370958134 -1.2720249011559035e-06 8.052961196077796e-08 10.162769892864967 179.9999913152279 -87.51017061180985 -170.6453614141578 -8.827812596100317e-32 -3.1805546814635168e-15 -3.1805546814635168e-15 84.96164767347696 -6.043019579483695 -1.3355250311610136 -5.1617783452464374e-06 4.2968645015856575e-07 -15.2817883714951 4.1524014928309336e-06 -21.493196963207748 -12.203639003707657 1.6399735076296255e-15 1.9878466759146975e-16 -1.3914926731402884e-15 10.40321486564781 -7.865440277518079 21.66587098100756 -13.404548814592488 -2.0319626581379686 -0.6140904941023091 -31.76027724143542 21.185292712992037 22.267292159274565 2.385416011097637e-15 1.1586504032381667e-31 5.5659706925611536e-15 -0.9292358384769525 -8.904808156855719 -38.4342878165098 5.752376607376796 -3.854252692196397 0.9132574659300572 -21.227205779488283 -18.92650012858211 -2.582599801699779 1.5902773407317584e-15 -6.3611093629270335e-15 8.827812596100317e-32
23.465118408203125 17.91373062133789 -376.50909423828125 2.035778309420965 15.772468311698834 -152.67064254217277 -1.1276024149843742 -1.8032487273742903 -0.22832047721426468 4.802678248468747e-07 1.2181762325543083e-06 -0.5289294203450334 -76.85076031277121 1.2148652836229659 2.4913227723106623 1.748133027201157e-06 1.897314032701972e-06 10.567607464727212 179.99999278842444 -69.81083131288551 -164.91255681265383 -4.4139062980501586e-32 -1.5902773407317584e-15 -3.1805546814635168e-15 85.24718691306344 -4.41481161167276 -1.7395837258174403 -5.112269675690848e-06 2.8855085712346303e-06 -14.77804900204332 1.4969244295430402e-06 -34.31593013372695 -9.801655493883906 1.9878466759146977e-16 -7.951386703658791e-16 7.951386703658791e-16 10.15378326374996 -7.932204323309293 21.604387633587514 -13.130197219890459 -2.165564167252673 -0.6510436442363526 -30.6562223614953 24.770349967246624 24.481527605368317 -1.1927080055488188e-15 -7.951386703658792e-16 -7.951386703658792e-16 -1.2383334663982002 -8.933440557205248 -38.42127929857662 5.934001531109155 -3.7148055986745225 0.8802521281016035 33.398235314305694 54.53246863951487 -40.846234835341846 3.975693351829395e-15 -1.1034765745125397e-31 -3.1805546814635164e-15
